<svg id="Capa_1" data-name="Capa 1" xmlns="http://www.w3.org/2000/svg" viewBox="0 0 250 250"><defs><style>.cls-1{fill:#313232;}.cls-2{fill:#fff;}</style></defs><title>learn</title><path id="Pfad_936" data-name="Pfad 936" class="cls-1" d="M208.113,41.876A117.547,117.547,0,1,0,242.547,125,117.547,117.547,0,0,0,208.113,41.876Z"/><path class="cls-2" d="M173.473,119.759c.014.008.024.02.037.028l.015.009Zm19.579-62.094a96.24,96.24,0,1,0,28.19,68.045A96.241,96.241,0,0,0,193.052,57.665ZM125.021,213.451a87.69,87.69,0,1,1,87.691-87.726l-.022-.015A87.705,87.705,0,0,1,125.021,213.451Z"/><path class="cls-2" d="M188.241,171.843V144.092c0-12.093-.027-19.442-.088-23.829-.1-6.887-.116-8.32-2.6-8.32h-.486l-.455.2c-.644.274-29.541,17.9-30.771,18.649L124.932,148.41,82.884,122.769c-25.6-15.6-36.341-22.088-41.008-24.784,2.544-1.493,6.89-4.123,14.533-8.754,15.607-9.536,52.463-31.992,64.565-39.362,1.812-1.109,3.2-1.888,4-2.3,4.928,2.941,29.012,17.616,42.478,25.82,24.967,15.235,35.693,21.732,40.449,24.5q-1.974,1.122-5.026,2.968l-8.2,4.95-.035,34.785v31.251ZM124.755,55.62c-.753.046-.98.06-34.061,20.205C82.52,80.8,74.359,85.791,68.236,89.559,57.276,96.3,57.276,96.3,57,97.3l-.295,1.073.666.9c.332.447.674.909,33.455,20.864,32.953,20.061,33.266,20.061,34.1,20.061s1.048,0,34.292-20.174c8.565-5.2,16.558-10.07,22.508-13.72,11.178-6.857,11.178-6.857,11.3-8.107l.01-.112v-.113c0-1.315-.275-1.487-3.651-3.6-1.663-1.041-4.07-2.531-7.039-4.361-5.937-3.657-14.146-8.682-23.115-14.149C125.975,55.615,125.7,55.615,124.9,55.615h-.07Z"/><path class="cls-2" d="M112.621,199.811c-7.417-4.257-15.976-9.035-19.016-10.659-2.19-1.169-6.266-3.346-7.418-4.03a18.276,18.276,0,0,1-6.7-6.968c-1.881-3.817-1.993-4.046-1.993-25.765,0-6.133.014-12.025.1-15.506,4.041,2.426,11.832,7.141,21.464,13,24.778,15.007,25.054,15.007,25.873,15.007.8,0,1.1,0,25.868-15.005,10.272-6.247,17.644-10.7,21.473-13,.077,3.494.09,9.379.09,15.5,0,21.18-.126,21.943-1.793,25.366-1.977,4.015-3.62,5.691-11.394,9.817-6.123,3.211-16.114,8.8-27.4,15.332l-6.818,3.938ZM86.6,150.356a2.427,2.427,0,0,0-1.736.727c-1.007,1.019-1,1.608-.889,11.447.1,9.867.114,10.673,1.144,12.531a12.907,12.907,0,0,0,5.891,5.4c3.154,1.577,12.021,6.492,22.575,12.517l11.353,6.438,11.14-6.371c5.658-3.218,13.478-7.6,17.467-9.742l1.622-.867c10.116-5.4,10.616-6.24,10.707-17.985l.017-1.924c.111-10.049.114-10.442-.88-11.448a2.43,2.43,0,0,0-1.736-.725,2.588,2.588,0,0,0-.96.189l.035-.012c-.56.231-2.7,1.45-19.575,11.7-8.6,5.236-15.4,9.275-17.841,10.672-2.3-1.32-8.571-5.057-17.849-10.673-8.5-5.173-18.762-11.382-19.637-11.725l.1.038A2.552,2.552,0,0,0,86.6,150.356Z"/></svg>