<svg id="Capa_1" data-name="Capa 1" xmlns="http://www.w3.org/2000/svg" viewBox="0 0 250 250"><defs><style>.cls-1,.cls-3{fill:#313232;}.cls-2{fill:#fff;}.cls-3{stroke:#fff;stroke-miterlimit:10;stroke-width:9px;}</style></defs><title>puzzle</title><path id="Pfad_936" data-name="Pfad 936" class="cls-1" d="M208.113,41.876A117.547,117.547,0,1,0,242.547,125,117.547,117.547,0,0,0,208.113,41.876Z"/><path class="cls-2" d="M173.473,119.759c.014.008.024.02.037.028l.015.009Zm19.579-62.094a96.24,96.24,0,1,0,28.19,68.045A96.241,96.241,0,0,0,193.052,57.665ZM125.021,213.451a87.69,87.69,0,1,1,87.691-87.726l-.022-.015A87.705,87.705,0,0,1,125.021,213.451Z"/><g id="Yo6cFl"><path class="cls-3" d="M125.975,200.656H122.8c-2.349-.891-4.026-2.652-5.746-4.38-5.625-5.651-11.246-11.306-16.939-16.888a21.768,21.768,0,0,0-4.617-3.625A6.822,6.822,0,0,0,85.356,179.9a42.59,42.59,0,0,0-.9,4.646c-1.159,5.9-4.2,10.267-10.17,12.064-9.846,2.962-19.778-6.456-19.773-15.388a14.449,14.449,0,0,1,12.636-14.008A24.621,24.621,0,0,0,72.593,166a6.507,6.507,0,0,0,3.633-9.129,21.183,21.183,0,0,0-3.911-5.271c-6.139-6.291-12.407-12.454-18.6-18.692-3.64-3.667-3.662-7.614-.055-11.243Q63.769,111.5,73.947,101.4a12.306,12.306,0,0,1,3.136-2.236c2.35-1.167,4.3-.268,4.983,2.267a25.52,25.52,0,0,1,.656,4.11A16.969,16.969,0,0,0,96.29,120.606c5.648,1.065,10.7-.688,15.036-4.207,5.454-4.431,8.12-10.31,7.373-17.377-.717-6.791-6.527-12.618-13.513-13.953-1.88-.359-3.812-.481-5.666-.933-2.693-.657-3.626-2.7-2.338-5.155a14.233,14.233,0,0,1,2.486-3.312q9.781-9.883,19.649-19.68c3.978-3.973,7.8-3.983,11.752-.038,6.155,6.141,12.279,12.311,18.473,18.411a22,22,0,0,0,4.368,3.487c4.314,2.47,8.97.557,10.414-4.2a43.8,43.8,0,0,0,.862-4.506c.945-4.925,3.273-8.918,7.925-11.167,9.9-4.787,19.442,3.3,21.4,10.735a14.534,14.534,0,0,1,.418,5.539c-.91,6.622-5.82,11.282-12.476,12.263a24.961,24.961,0,0,0-5.305,1.171,6.519,6.519,0,0,0-3.719,9.2,20.772,20.772,0,0,0,3.819,5.162c5.525,5.681,11.16,11.256,16.779,16.844,1.8,1.786,3.626,3.527,4.577,5.954v3.17a23.07,23.07,0,0,1-2.551,3.918q-10.145,10.335-20.463,20.5a11.733,11.733,0,0,1-2.9,2.086c-2.469,1.254-4.451.333-5.156-2.364a30.963,30.963,0,0,1-.612-3.827c-.912-6.972-4.475-12.008-11.094-14.507-5.808-2.192-11.284-.83-16.228,2.583a19.077,19.077,0,0,0-8.682,18.155c.519,6.657,6.507,12.753,13.532,14.1,1.88.36,3.812.48,5.666.933,2.708.662,3.638,2.693,2.349,5.147a14.21,14.21,0,0,1-2.487,3.311c-6.178,6.252-12.363,12.5-18.656,18.635A48.02,48.02,0,0,1,125.975,200.656Z"/></g></svg>
